<?xml version="1.0" encoding="UTF-8"?>
<!DOCTYPE svg PUBLIC "-//W3C//DTD SVG 1.1//EN" "http://www.w3.org/Graphics/SVG/1.1/DTD/svg11.dtd">
<!-- Creator: CorelDRAW 2020 (64-Bit) -->
<svg xmlns="http://www.w3.org/2000/svg" xml:space="preserve" width="15.9935mm" height="20.2119mm" version="1.1" style="shape-rendering:geometricPrecision; text-rendering:geometricPrecision; image-rendering:optimizeQuality; fill-rule:evenodd; clip-rule:evenodd"
viewBox="0 0 44.22 55.89"
 xmlns:xlink="http://www.w3.org/1999/xlink"
 xmlns:xodm="http://www.corel.com/coreldraw/odm/2003">
 <defs>
  <style type="text/css">
   <![CDATA[
    .fil2 {fill:#2B9DE5}
    .fil1 {fill:#3EB2EE}
    .fil4 {fill:#97CEF5}
    .fil0 {fill:#A51324}
    .fil3 {fill:#B2E2F9}
   ]]>
  </style>
 </defs>
 <g id="Capa_x0020_1">
  <metadata id="CorelCorpID_0Corel-Layer"/>
  <g id="_2711547903216">
   <path class="fil0" d="M15.89 12.79c-1.5,0.52 -3.14,1.44 -4.35,2.46 -1.07,0.9 -2.37,2.34 -3.09,3.73 -0.12,0.23 -0.22,0.37 -0.31,0.58 -0.22,0.56 -0.25,0.46 -0.5,1.19 -0.04,0.13 -0.05,0.2 -0.1,0.33 -0.05,0.13 -0.09,0.16 -0.14,0.28 -0.12,0.29 -0.3,1.02 -0.36,1.34 -0.47,2.17 -0.36,3.96 0.09,6.09 0.1,0.46 0.33,0.91 0.36,1.34 0.1,0.1 0.87,2.08 1.59,2.99 0.17,0.21 0.52,0.64 0.64,0.89 0.3,0.24 0.52,0.65 0.8,0.89 0.3,0.26 0.58,0.62 0.95,0.81 0.03,0.07 -0.01,0.01 0.06,0.09 0.39,0.49 2.51,1.69 3.11,1.96 2.77,1.23 5.97,1.51 8.92,0.73 0.65,-0.17 1.39,-0.41 1.96,-0.68 0.4,-0.19 1.41,-0.67 1.72,-0.92 0.11,0.03 0.01,-0.01 0.16,0.05l-0.08 -0.16c0.14,-0.06 0.19,-0.11 0.29,-0.17 0.11,-0.07 0.14,-0.11 0.24,-0.18 0.14,-0.1 0.38,-0.28 0.5,-0.35l0.34 -0.29c0.13,-0.14 0.45,-0.42 0.62,-0.45l0.67 -0.74c0.27,-0.27 0.43,-0.48 0.66,-0.77 0.42,-0.52 0.81,-1.08 1.15,-1.7 0.7,-1.27 1.22,-2.59 1.52,-4.19 0.63,-3.44 -0.15,-6.75 -1.68,-9.3 -1.09,-1.81 -2.46,-3.19 -4.2,-4.36 -0.59,-0.39 -1.22,-0.71 -1.85,-1.01 -2.52,-1.18 -5.76,-1.43 -8.53,-0.8 -0.39,0.09 -0.81,0.25 -1.17,0.31z"/>
   <path class="fil1" d="M7.5 30.13c-0.03,-0.43 -0.26,-0.88 -0.36,-1.34 -0.45,-2.13 -0.56,-3.92 -0.09,-6.09 0.07,-0.32 0.24,-1.05 0.36,-1.34 0.05,-0.12 0.09,-0.15 0.14,-0.28 0.05,-0.12 0.05,-0.19 0.1,-0.33 0.25,-0.73 0.28,-0.63 0.5,-1.19 0.08,-0.21 0.19,-0.35 0.31,-0.58 0.72,-1.4 2.02,-2.84 3.09,-3.73 1.21,-1.02 2.86,-1.94 4.35,-2.46 -0.09,-0.32 -1.47,-2.5 -1.75,-3 -0.79,-1.4 -1.88,-3.1 -2.6,-4.58l-0.61 -1.2c-0.08,-0.18 -0.07,-0.27 -0.17,-0.46 -0.21,-0.37 -0.56,-1.28 -0.68,-1.69 -0.1,-0.37 -0.22,-0.53 -0.31,-0.92 -0.08,-0.31 -0.17,-0.64 -0.26,-0.95 -0.16,0.21 -0.27,0.79 -0.35,1.08 -0.25,0.89 -0.88,2.36 -1.26,3.18 -0.66,1.43 -1.34,2.52 -2.07,3.85 -1.02,1.84 -2.21,3.6 -3.27,5.55 -1.92,3.54 -3.56,7.28 -1.8,11.41 0.81,1.9 2.68,3.51 4.49,4.34 0.52,0.24 1.63,0.66 2.25,0.71z"/>
   <path class="fil2" d="M20.82 16.15c-0.01,-0.15 -0.69,-1.48 -0.77,-1.61 -0.81,-0 -1.25,0.08 -1.98,0.17 -0.7,0.09 -1.44,0.37 -2.07,0.61l-1.1 0.52c-0.24,0.14 -0.43,0.26 -0.67,0.4l-0.97 0.67c-0.1,0.09 -0.14,0.17 -0.26,0.26 -0.24,0.18 -0.37,0.31 -0.56,0.49 -0.1,0.09 -0.21,0.16 -0.29,0.24 -0.36,0.39 -1.1,1.36 -1.38,1.83 -0.01,0.01 -0.02,0.02 -0.02,0.03 -0.01,0.01 -0.01,0.02 -0.02,0.03l-0.7 1.36c-0.51,1.3 -0.85,2.48 -0.85,4.04 -0.01,1.39 0.06,2.52 0.53,3.83 0.28,0.78 0.72,1.81 1.23,2.51 0.23,0.31 0.38,0.62 0.69,0.96 0.09,0.1 0.19,0.17 0.26,0.26l0.62 0.7c0.01,0.01 0.02,0.01 0.03,0.02 0.07,0.05 0.08,0.06 0.14,0.12 0.28,0.28 0.26,0.32 0.6,0.5 0.1,0.18 0.47,0.38 0.69,0.53 0.01,0.01 0.02,0.02 0.03,0.02l0.21 0.16c0.35,0.24 1.01,0.39 1.14,0.52 0.63,-0.13 2,-0.89 2.51,-1.21 1.06,-0.68 2.18,-1.65 2.95,-2.6 0.81,-1.01 1.53,-2.26 1.94,-3.56 0.66,-2.13 0.65,-4.29 0.12,-6.52 -0.23,-0.99 -0.53,-1.91 -0.88,-2.81 -0.21,-0.53 -0.88,-2.2 -1.16,-2.5z"/>
   <path class="fil3" d="M20.82 16.15c0.27,0.3 0.95,1.97 1.16,2.5 0.35,0.9 0.65,1.82 0.88,2.81 0.53,2.23 0.55,4.39 -0.12,6.52 -0.41,1.3 -1.13,2.55 -1.94,3.56 -0.77,0.95 -1.89,1.92 -2.95,2.6 -0.51,0.33 -1.88,1.08 -2.51,1.22l-0.03 0.09c1.06,0.33 1.02,0.55 2.73,0.89 2.48,0.5 4.91,0.06 7.15,-0.99l0.45 -0.24c0.04,-0.02 0.07,-0.06 0.12,-0.09 0.05,-0.03 0.06,-0.04 0.13,-0.08 0.01,-0.01 0.02,-0.01 0.03,-0.02l0.07 -0.03c0.18,-0.1 0.46,-0.28 0.6,-0.46 0.36,0.02 0.03,-0.02 0.32,0.11 -0.03,-0.22 -0.29,-0.14 0.05,-0.37 0.45,-0.31 0.53,-0.5 0.74,-0.59 0.33,-0.15 0.19,0 0.34,-0.33 0.16,-0.36 0.24,-0.17 0.31,-0.25 0.13,-0.13 -0.07,0.05 0.04,-0.16 0.1,-0.2 0.18,-0.12 0.2,-0.13 0.26,-0.07 -0.09,0.03 0.14,-0.3 0.11,-0.15 0.11,-0.02 0.28,-0.42l0.31 0.1c-0.05,-0.15 -0.24,-0.15 -0.05,-0.41l0.17 -0.21c0.01,-0.01 0.01,-0.02 0.02,-0.03 0.01,-0.01 0.01,-0.02 0.02,-0.03 0.05,-0.08 0.04,-0.04 0.1,-0.16 0.06,-0.13 0.08,-0.19 0.15,-0.32 2.12,-3.86 1.84,-8.38 -0.7,-11.88l-0.86 -1.1c-0.25,-0.28 -0.31,-0.27 -0.5,-0.45 -1.18,-1.14 -2.68,-1.98 -4.29,-2.47 -0.72,-0.22 -2.54,-0.62 -3.35,-0.47 0.09,0.13 0.76,1.46 0.77,1.61z"/>
   <path class="fil0" d="M29.5 42.39l4.36 5.69c0.17,0.21 0.34,0.43 0.53,0.69l1.66 2.14c0.51,0.64 1.11,1.51 1.63,2.12 0.21,0.24 0.37,0.53 0.55,0.72l0.35 -0.29c0.53,-0.51 0.23,-0.11 0.68,-0.52 0,-0 0.02,-0.01 0.02,-0.02 0.25,-0.23 0.24,-0.16 0.33,-0.24 0.21,-0.17 -0.06,-0.06 0.18,-0.24 0.1,-0.07 0.23,-0.11 0.34,-0.19l0.57 -0.43c0.12,-0.08 0.2,-0.16 0.29,-0.24 0.42,-0.36 0.06,0.12 0.59,-0.46 0.04,-0.04 0.2,-0.2 0.28,-0.25l0.95 -0.67 -8.12 -10.56c-0.19,-0.26 -0.37,-0.5 -0.57,-0.71l-2.56 1.91c-0.01,0.01 -0.02,0.02 -0.03,0.03 -0.01,0.01 -0.02,0.02 -0.03,0.03 -0.04,0.03 -0.11,0.09 -0.14,0.12 -0.05,0.04 -0.06,0.05 -0.11,0.09 -0.12,0.09 -0.21,0.14 -0.31,0.22l-1.45 1.06z"/>
   <path class="fil4" d="M10.27 25.42l0.02 1.05 4.2 -0.07c0.09,-0.33 -0.27,-2.96 1.98,-5.04 0.16,-0.14 0.43,-0.32 0.54,-0.48 -0.07,-0.18 -2.05,-2.68 -2.41,-3.15l-0.19 -0.18c-0.63,0.34 -1.44,1.22 -1.92,1.79l-0.93 1.34c-0.71,1.26 -1.3,3 -1.3,4.75z"/>
   <path class="fil3" d="M9 4.19c-0.19,0.19 -0.18,0.37 -0.28,0.63 -0.4,1.12 -0.88,1.97 -1.44,2.99 -1,1.83 -2.28,3.7 -3.29,5.64 -0.91,1.75 -1.51,3.12 -2.05,5.07 -0.36,1.31 -0.86,5.3 0.22,6.1 0.86,0.64 2.12,-0.16 1.83,-1.25 -0.86,-3.24 -0.18,-5.91 0.95,-8.93 0.96,-2.55 3.97,-8.25 4.07,-10.26z"/>
   <path class="fil0" d="M27.41 36.94c-0.01,0.13 0.31,0.47 0.46,0.68 -0.18,0.25 -0.86,0.72 -0.59,1.71 0.13,0.49 0.69,1.08 0.95,1.42l0.75 -0.77c0.18,-0.17 0.08,-0.06 0.31,-0.21 0.7,-0.46 0.76,-0.63 1.14,-0.92l0.69 -0.52c0.07,-0.05 0.1,-0.07 0.16,-0.11l0.86 -0.67c0.34,-0.2 0.44,-0.19 0.55,-0.49 -0.28,-0.38 -0.63,-0.94 -1.08,-1.16 -0.79,-0.39 -1.23,-0.06 -1.72,0.18 -0.18,-0.26 -0.4,-0.47 -0.57,-0.74 -0.17,0.03 -0.49,0.31 -0.62,0.45l-0.34 0.29c-0.12,0.07 -0.36,0.25 -0.5,0.35 -0.1,0.07 -0.13,0.11 -0.24,0.18 -0.1,0.07 -0.16,0.12 -0.29,0.17l0.08 0.16z"/>
   <path class="fil0" d="M38.81 54.46c0.82,1.38 2.89,2.01 4.34,0.76 0.5,-0.43 1.03,-1.08 1.07,-2.11 0.03,-0.83 -0.41,-1.89 -0.92,-2.27l-0.11 0.14c-0.2,0.26 -0.13,0.18 -0.36,0.32 -0.01,0.01 -0.02,0.01 -0.03,0.02 -0.01,0.01 -0.02,0.02 -0.03,0.02l-1.63 1.28c-0.01,0.01 -0.02,0.01 -0.03,0.02 -0.01,0.01 -0.02,0.01 -0.03,0.02 -0.01,0 -0.09,0.06 -0.1,0.07 -0.01,0.01 -0.02,0.02 -0.03,0.02 -0.01,0.01 -0.02,0.02 -0.03,0.02l-0.76 0.56c-0.15,0.1 -0.12,0.09 -0.26,0.21l-0.15 0.12c-0.32,0.27 -0.61,0.42 -0.9,0.73l-0.05 0.05z"/>
   <path class="fil0" d="M28.24 40.75c0.09,0.17 1.15,1.53 1.27,1.63l1.45 -1.06c0.11,-0.08 0.19,-0.13 0.31,-0.22 0.05,-0.04 0.07,-0.05 0.11,-0.09 0.04,-0.03 0.11,-0.09 0.14,-0.12 0.01,-0.01 0.02,-0.02 0.03,-0.03 0.01,-0.01 0.02,-0.02 0.03,-0.03l2.56 -1.91c-0.26,-0.34 -0.44,-0.59 -0.7,-0.92 -0.17,-0.21 -0.54,-0.77 -0.73,-0.94 -0.1,0.3 -0.2,0.29 -0.55,0.49l-0.86 0.67c-0.06,0.04 -0.09,0.06 -0.16,0.11l-0.69 0.52c-0.39,0.29 -0.44,0.46 -1.14,0.92 -0.23,0.15 -0.13,0.04 -0.31,0.21l-0.75 0.77z"/>
   <path class="fil0" d="M38.24 53.75c0.19,0.2 0.35,0.48 0.58,0.71l0.05 -0.05c0.29,-0.31 0.58,-0.46 0.9,-0.73l0.15 -0.12c0.13,-0.12 0.11,-0.1 0.26,-0.21l0.76 -0.56c0.01,-0.01 0.02,-0.02 0.03,-0.02 0.01,-0.01 0.02,-0.02 0.03,-0.02 0,-0 0.09,-0.06 0.1,-0.07 0.01,-0.01 0.02,-0.01 0.03,-0.02 0.01,-0.01 0.02,-0.01 0.03,-0.02l1.63 -1.28c0.01,-0.01 0.02,-0.02 0.03,-0.02 0.01,-0.01 0.02,-0.01 0.03,-0.02 0.23,-0.14 0.16,-0.06 0.36,-0.32l0.11 -0.14c-0.07,-0.17 -0.37,-0.56 -0.48,-0.65l-0.95 0.67c-0.08,0.04 -0.24,0.2 -0.28,0.25 -0.53,0.58 -0.17,0.11 -0.59,0.46 -0.09,0.08 -0.17,0.16 -0.29,0.24l-0.57 0.43c-0.11,0.08 -0.24,0.12 -0.34,0.19 -0.24,0.17 0.03,0.06 -0.18,0.24 -0.1,0.08 -0.08,0.01 -0.33,0.24 -0,0 -0.02,0.01 -0.02,0.02 -0.44,0.41 -0.14,0.01 -0.68,0.52l-0.35 0.29z"/>
  </g>
 </g>
</svg>
