<?xml version="1.0" encoding="UTF-8"?>
<!DOCTYPE svg PUBLIC "-//W3C//DTD SVG 1.1//EN" "http://www.w3.org/Graphics/SVG/1.1/DTD/svg11.dtd">
<!-- Creator: CorelDRAW 2020 (64-Bit) -->
<svg xmlns="http://www.w3.org/2000/svg" xml:space="preserve" width="19.5877mm" height="19.5871mm" version="1.1" style="shape-rendering:geometricPrecision; text-rendering:geometricPrecision; image-rendering:optimizeQuality; fill-rule:evenodd; clip-rule:evenodd"
viewBox="0 0 17.05 17.05"
 xmlns:xlink="http://www.w3.org/1999/xlink"
 xmlns:xodm="http://www.corel.com/coreldraw/odm/2003">
 <defs>
  <style type="text/css">
   <![CDATA[
    .fil1 {fill:url(#id0)}
    .fil0 {fill:url(#id1)}
   ]]>
  </style>
  <linearGradient id="id0" gradientUnits="userSpaceOnUse" x1="8.19" y1="11.64" x2="16.27" y2="11.64">
   <stop offset="0" style="stop-opacity:1; stop-color:#E24640"/>
   <stop offset="0.141176" style="stop-opacity:1; stop-color:#9A2320"/>
   <stop offset="0.321569" style="stop-opacity:1; stop-color:#510000"/>
   <stop offset="0.65098" style="stop-opacity:1; stop-color:#DF5F54"/>
   <stop offset="0.788235" style="stop-opacity:1; stop-color:#510000"/>
   <stop offset="1" style="stop-opacity:1; stop-color:#C42F44"/>
  </linearGradient>
  <linearGradient id="id1" gradientUnits="userSpaceOnUse" x1="0.78" y1="7.64" x2="9.76" y2="7.64">
   <stop offset="0" style="stop-opacity:1; stop-color:#001E44"/>
   <stop offset="0.439216" style="stop-opacity:1; stop-color:#0072B6"/>
   <stop offset="0.682353" style="stop-opacity:1; stop-color:#005D97"/>
   <stop offset="0.858824" style="stop-opacity:1; stop-color:#004778"/>
   <stop offset="0.964706" style="stop-opacity:1; stop-color:#0F3049"/>
   <stop offset="1" style="stop-opacity:1; stop-color:#1E1819"/>
  </linearGradient>
 </defs>
 <g id="Capa_x0020_1">
  <metadata id="CorelCorpID_0Corel-Layer"/>
  <g id="_2697521934640">
   <image x="-0" y="0" width="17.05" height="17.05" xlink:href="logo_Images\logo_ImgID1.png"/>
  </g>
  <g id="_2697521931808">
   <image x="0.73" y="2.9" width="15.78" height="13.24" xlink:href="logo_Images\logo_ImgID2.png"/>
  </g>
  <path class="fil0" d="M9.76 3.15l-4.49 0c-2.48,0 -4.49,2.01 -4.49,4.49 0,2.47 2.01,4.49 4.49,4.49l0 0 4.49 0 0 -4.92 -4.49 0 0 1.6 2.89 0 0 1.72 -2.89 0c-1.59,0 -2.89,-1.3 -2.89,-2.89l0 0c0,-1.59 1.3,-2.89 2.89,-2.89l0 0 4.49 0 0 -1.6z"/>
  <path class="fil1" d="M8.19 16.04l1.6 0 0 -4.05 4.3 0 0 -0.01 0.08 0c0.24,-0.02 0.47,-0.09 0.69,-0.19l0 0c0.83,-0.38 1.41,-1.21 1.41,-2.17 0,-0.65 -0.27,-1.25 -0.71,-1.69l0 0 -0.01 -0.01c-0.44,-0.43 -1.04,-0.69 -1.71,-0.69l0 0 -5.66 0 0 8.81zm1.6 -7.24l4.07 0c0.28,0 0.47,0.13 0.58,0.23l0 0c0.09,0.09 0.24,0.29 0.24,0.58l0 0c0,0.31 -0.19,0.6 -0.49,0.73l0 0 0 0.01c-0.1,0.05 -0.22,0.08 -0.33,0.08l0 0 -4.07 0 0 -1.62z"/>
 </g>
</svg>
