<?xml version="1.0" encoding="UTF-8"?>
<!DOCTYPE svg PUBLIC "-//W3C//DTD SVG 1.1//EN" "http://www.w3.org/Graphics/SVG/1.1/DTD/svg11.dtd">
<!-- Creator: CorelDRAW 2020 (64-Bit) -->
<svg xmlns="http://www.w3.org/2000/svg" xml:space="preserve" width="12.0442mm" height="12.0438mm" version="1.1" style="shape-rendering:geometricPrecision; text-rendering:geometricPrecision; image-rendering:optimizeQuality; fill-rule:evenodd; clip-rule:evenodd"
viewBox="0 0 6.4 6.4"
 xmlns:xlink="http://www.w3.org/1999/xlink"
 xmlns:xodm="http://www.corel.com/coreldraw/odm/2003">
 <defs>
  <style type="text/css">
   <![CDATA[
    .fil0 {fill:url(#id0)}
    .fil1 {fill:url(#id1)}
   ]]>
  </style>
  <linearGradient id="id0" gradientUnits="userSpaceOnUse" x1="0.29" y1="2.87" x2="3.67" y2="2.87">
   <stop offset="0" style="stop-opacity:1; stop-color:#001E44"/>
   <stop offset="0.439216" style="stop-opacity:1; stop-color:#0072B6"/>
   <stop offset="0.682353" style="stop-opacity:1; stop-color:#005D97"/>
   <stop offset="0.858824" style="stop-opacity:1; stop-color:#004778"/>
   <stop offset="0.964706" style="stop-opacity:1; stop-color:#0F3049"/>
   <stop offset="1" style="stop-opacity:1; stop-color:#1E1819"/>
  </linearGradient>
  <linearGradient id="id1" gradientUnits="userSpaceOnUse" x1="3.08" y1="4.37" x2="6.11" y2="4.37">
   <stop offset="0" style="stop-opacity:1; stop-color:#E24640"/>
   <stop offset="0.141176" style="stop-opacity:1; stop-color:#9A2320"/>
   <stop offset="0.321569" style="stop-opacity:1; stop-color:#510000"/>
   <stop offset="0.65098" style="stop-opacity:1; stop-color:#DF5F54"/>
   <stop offset="0.788235" style="stop-opacity:1; stop-color:#510000"/>
   <stop offset="1" style="stop-opacity:1; stop-color:#C42F44"/>
  </linearGradient>
 </defs>
 <g id="Capa_x0020_1">
  <metadata id="CorelCorpID_0Corel-Layer"/>
  <g id="_2711550318160">
   <image x="-0" y="0" width="6.4" height="6.4" xlink:href="logo-2_Images\logo-2_ImgID1.png"/>
  </g>
  <g id="_2711550317344">
   <image x="0.22" y="0.99" width="6.07" height="5.08" xlink:href="logo-2_Images\logo-2_ImgID2.png"/>
  </g>
  <path class="fil0" d="M3.67 1.18l-1.69 0c-0.93,0 -1.69,0.76 -1.69,1.69 0,0.93 0.76,1.69 1.69,1.69l0 0 1.69 0 0 -1.85 -1.69 0 0 0.6 1.08 0 0 0.65 -1.08 0c-0.6,0 -1.08,-0.49 -1.08,-1.08l0 0c0,-0.6 0.49,-1.08 1.08,-1.08l0 0 1.69 0 0 -0.6z"/>
  <path class="fil1" d="M3.08 6.02l0.6 0 0 -1.52 1.61 0 0 -0 0.03 0c0.09,-0.01 0.18,-0.03 0.26,-0.07l0 0c0.31,-0.14 0.53,-0.45 0.53,-0.81 0,-0.25 -0.1,-0.47 -0.26,-0.63l0 0 -0 -0c-0.16,-0.16 -0.39,-0.26 -0.64,-0.26l0 0 -2.12 0 0 3.31zm0.6 -2.72l1.53 0c0.11,0 0.18,0.05 0.22,0.08l0 0c0.03,0.03 0.09,0.11 0.09,0.22l0 0c0,0.12 -0.07,0.23 -0.18,0.27l0 0 0 0c-0.04,0.02 -0.08,0.03 -0.13,0.03l0 0 -1.53 0 0 -0.61z"/>
 </g>
</svg>
