<?xml version="1.0" encoding="UTF-8"?>
<!DOCTYPE svg PUBLIC "-//W3C//DTD SVG 1.1//EN" "http://www.w3.org/Graphics/SVG/1.1/DTD/svg11.dtd">
<!-- Creator: CorelDRAW 2020 (64-Bit) -->
<svg xmlns="http://www.w3.org/2000/svg" xml:space="preserve" width="13.4001mm" height="20.4031mm" version="1.1" style="shape-rendering:geometricPrecision; text-rendering:geometricPrecision; image-rendering:optimizeQuality; fill-rule:evenodd; clip-rule:evenodd"
viewBox="0 0 30.73 46.8"
 xmlns:xlink="http://www.w3.org/1999/xlink"
 xmlns:xodm="http://www.corel.com/coreldraw/odm/2003">
 <defs>
  <style type="text/css">
   <![CDATA[
    .fil2 {fill:#E6E7E8}
    .fil4 {fill:#D2D3D5}
    .fil5 {fill:#BDBFC1}
    .fil6 {fill:#A9ABAE}
    .fil3 {fill:#848688}
    .fil8 {fill:#373435}
    .fil0 {fill:#0196BA}
    .fil14 {fill:#02C7F5}
    .fil11 {fill:#111226}
    .fil9 {fill:#2B2C33}
    .fil1 {fill:#808285}
    .fil13 {fill:#863A01}
    .fil16 {fill:#8D8D93}
    .fil7 {fill:#A51324}
    .fil10 {fill:#B4B4B4}
    .fil12 {fill:#CECED0}
    .fil15 {fill:white}
   ]]>
  </style>
 </defs>
 <g id="Capa_x0020_1">
  <metadata id="CorelCorpID_0Corel-Layer"/>
  <g id="_2711550343504">
   <path class="fil0" d="M9.24 25.58l-0 5.49 0 0.06 -0.01 8.38 -0.31 0 -8.92 0 0 7.28 30.69 -0 0.01 -7.3 -21.08 0.02 -0 -8.36 0 -0.07 0 -5.52 -0.02 -2.35 -0.17 0.13c-0.11,0.06 0.01,0.03 -0.16,0.04 -0.01,-0.25 0.01,-0.19 0.17,-0.28 0.17,-0.1 0.17,0.19 0.14,-0.3 -0.11,0.1 -0.12,0.16 -0.33,0.17 0.01,-0.53 0.33,-0.04 0.35,-0.56 -0.12,0.06 -0.1,0.06 -0.21,0.11 -0.05,0.02 -0.07,0.03 -0.12,0.05l-0.06 3.02z"/>
   <path class="fil1" d="M0.02 22.74l-0.01 2.8c2.37,-0.08 5.52,-0 8.05,-0.01 0.41,-0 0.81,0.04 1.18,0.04l0.06 -3.02c0.05,-0.02 0.07,-0.02 0.12,-0.05 0.1,-0.05 0.09,-0.05 0.21,-0.11 -0.02,0.52 -0.34,0.02 -0.35,0.56 0.21,-0.01 0.22,-0.07 0.33,-0.17 0.02,0.49 0.02,0.21 -0.14,0.3 -0.16,0.09 -0.18,0.03 -0.17,0.28 0.16,-0 0.04,0.02 0.16,-0.04l0.17 -0.13 0.02 2.35c0.28,0.03 0.95,-0.03 1.3,-0.03 0.45,0 0.89,0 1.34,0 0.87,-0 1.75,0 2.62,-0 1.31,-0 15.22,0.06 15.82,-0.02l-0 -2.79 -20.75 -0c-0.11,-0.19 -0.06,-0.71 -0.05,-0.94l-0.97 0.01 -0.02 0.94 -8.91 0z"/>
   <path class="fil2" d="M30.72 39.5l-0 -2.74 -20.78 -0.02c0.01,-0.25 -0.02,-0.61 0.02,-0.83 0.05,-0.28 0.09,-0.03 0.04,-0.27 -0,-0.02 -0.05,-0.05 -0.06,-0.31l0.03 -1.06c-0,-0.06 -0.04,-0.27 -0.04,-0.36l-0.01 -2.76 -0.28 0.02 0 8.36 21.08 -0.02z"/>
   <path class="fil3" d="M9.64 31.08l0.47 -0.26 -0.12 -0.1c-0.01,-0.01 -0.03,-0.02 -0.03,-0.03 -0.01,-0.01 -0.03,-0.02 -0.04,-0.03 0.02,-0.69 -0.04,-0.4 0.15,-0.64 -0.37,-0.41 0.02,-0.59 0.06,-0.64 -0.2,-0.42 -0.2,0.45 -0.2,-1.04l20.8 -0.01 0.01 2.8 0.01 0.01 -0.02 -5.62c-0.6,0.07 -14.51,0.02 -15.82,0.02 -0.87,0 -1.75,-0 -2.62,0 -0.45,0 -0.89,0 -1.34,-0 -0.35,-0 -1.02,0.06 -1.3,0.03l-0 5.52z"/>
   <path class="fil4" d="M30.72 36.76l0 -2.8c-0.42,-0.1 -9.66,-0.02 -10.42,-0.03 -0.8,-0.01 -9.92,0.06 -10.38,-0.03 0.01,0.09 0.04,0.29 0.04,0.36l-0.03 1.06c0.01,0.25 0.06,0.28 0.06,0.31 0.05,0.24 0.01,-0.01 -0.04,0.27 -0.04,0.23 -0.01,0.58 -0.02,0.83l20.78 0.02z"/>
   <path class="fil5" d="M9.92 33.9c0.46,0.1 9.58,0.03 10.38,0.03 0.76,0.01 10,-0.07 10.42,0.03l0.02 -2.83 -0.01 -0.01 -20.81 0.01 0.01 2.76z"/>
   <path class="fil6" d="M9.64 31.08l-0 0.07 0.28 -0.02 20.81 -0.01 -0.01 -2.8 -20.8 0.01c0,1.49 0,0.62 0.2,1.04 -0.04,0.05 -0.44,0.23 -0.06,0.64 -0.19,0.24 -0.12,-0.05 -0.15,0.64 0.01,0.01 0.03,0.02 0.04,0.03 0.01,0.01 0.03,0.02 0.03,0.03l0.12 0.1 -0.47 0.26z"/>
   <path class="fil7" d="M4.49 2.59c0.19,-0.1 -0.01,0.12 0.57,-0.01l0.42 -0.18c0.2,-0.16 -0.23,-0 0.09,-0.07 0.07,-0.16 0.2,-0.28 0.3,-0.4l2.67 0.51c0.11,0.63 0.26,0.84 0.61,1.15 0.35,0.3 0.82,0.42 1.4,0.43 0.32,0.64 1.68,4.07 2.03,4.96 0.34,0.85 0.67,1.65 1.02,2.51 0.2,0.49 0.96,2.16 1,2.57 -0.38,0.21 -0.57,0.64 -0.61,1.08 0.04,0.73 0.14,1.11 0.54,1.47 1.07,0.98 2.9,0.36 2.88,-1.29 -0.01,-0.43 -0.13,-0.54 -0.23,-0.88 -0.18,-0.34 -0.36,-0.49 -0.78,-0.68 -0.68,-0.3 -0.44,0.05 -0.75,-0.74l-3.92 -9.61c-0.08,-0.35 0.78,-1.16 -0.1,-2.24 -0.2,-0.25 -0.47,-0.48 -0.91,-0.6 -0.78,-0.21 -1.7,0.16 -2.01,1.01l-2.65 -0.51c-0.2,-0.54 -0.3,-0.77 -0.78,-0.97 -1.01,-0.42 -2.01,0.56 -1.68,1.57 0.07,0.22 0.25,0.45 0.37,0.55 0.19,0.17 0.34,0.16 0.54,0.37z"/>
   <path class="fil8" d="M0.02 22.74l8.91 -0 0.02 -0.94 0.97 -0.01c-0.01,0.23 -0.06,0.74 0.05,0.94l20.75 0 -0 -0.97c-0.97,-0.04 -2.01,-0.01 -2.98,-0.01 -0.68,0 -2.5,0.08 -3.05,-0.03 -0.18,-0.04 -0.08,-0.01 -0.21,-0.13 -0.19,0.18 0.02,0.08 -0.21,0.15 -0.19,-0.11 -0.02,0.03 -0.16,-0.18 -0.17,0.1 -0.01,0.05 -0.21,0.08 0.24,0.05 0.1,0.03 0.19,0.1 -0.78,0.01 -6.08,0.06 -6.28,-0.03 -0.37,0.02 -0.12,-0.05 -0.26,-0.07 -0.11,-0.02 -0.03,0.06 -0.23,0.11l-0.16 -0.18c-0.1,0.13 -0.02,0.07 -0.2,0.09 0.32,0.06 0.03,-0.02 0.18,0.09 -0.45,0.01 -2.25,0.05 -2.44,-0.03 -0.24,0.03 -0.18,0.08 -0.27,-0.1 -0.2,0.17 0.07,0.13 -0.21,0.12 -0.1,-0.01 -0.17,-0.07 -0.18,-0.09 -0.01,-0.04 -0.06,0.01 0,-0.07 -0.13,0.13 0.01,0.11 -0.22,0.07 0.02,0.01 0.07,0.02 0.08,0.03 0.09,0.05 0.07,0.04 0.12,0.08l-4.67 0.01c0.17,-0.13 0.28,-0.15 0.31,-0.39 -0.32,-0.04 -0.37,0.1 -0.43,0.26l-0.03 0.08c-0,0.01 -0.01,0.03 -0.01,0.04l-9.14 0 -0.03 0.99z"/>
   <polygon class="fil4" points="0.02,33.92 0.02,36.71 8.94,36.72 8.93,39.52 9.24,39.51 9.24,31.14 8.91,31.13 8.92,33.93 "/>
   <path class="fil3" d="M0 28.32l8.94 0.01 -0 2.75 0.3 -0 0 -5.49c-0.38,0 -0.78,-0.04 -1.18,-0.04 -2.53,0.01 -5.68,-0.07 -8.05,0.01l-0.01 2.78z"/>
   <polygon class="fil6" points="0.01,31.12 8.91,31.13 9.24,31.14 9.24,31.08 8.94,31.08 8.94,28.33 0,28.32 "/>
   <path class="fil7" d="M21.63 15.02l0.26 -0.05 0.01 3.39 3.19 0.03c0.15,0.25 0.07,0.49 0.1,0.84 0.55,0.42 0.45,0.49 0.67,0.84l1.33 0.02 0.01 -0.7 -0.67 -0.03 -0 -0.58 0.64 -0c0.01,-0.43 0.05,-1.52 -0.03,-1.85l-0.65 -2.29c-0.26,-0.9 -0.55,-0.42 -2.45,-0.56 -0.34,0.01 -0.86,0.09 -1.13,-0.07 0.04,0.19 -0.7,-0.12 -0.96,0.51 -0.09,0.21 -0.02,0.27 -0.17,0.4 -0.06,-0.16 -0.13,-0.35 -0.13,-0.56 -0.01,-0.23 0.01,-0.46 0,-0.7l0.24 -0.07 -0.01 -0.23c-0,-0.01 -0,-0.03 -0,-0.04l-0.04 -0.88c-0.11,-0.04 -0.33,-0.1 -0.48,-0.02 -0.18,0.09 -0.07,-0.02 -0.11,0.14 -0.09,0.36 0.04,-0.13 0.01,0.28 -0,0.01 -0,0.03 -0,0.04l-0.01 0.55c-0,0.01 -0,0.03 -0,0.04 0.05,0.44 0.4,-0.31 0.14,1.45 0.23,0.04 0.13,-0.03 0.24,0.12zm2.88 -0.47c-0.34,0.09 -0.24,0.53 -0.24,1.09 0,0.43 -0.02,0.91 -0,1.34 0.03,0.54 0.37,0.41 0.89,0.42 1.32,0.01 1.68,0.19 1.54,-0.39l-0.45 -1.6c-0.1,-0.35 -0.13,-0.76 -0.48,-0.86 -0.17,-0.05 -1.1,-0.04 -1.26,0zm-1.66 0.03c-0.25,0.13 -0.25,0.19 -0.25,0.52 0,0.54 -0.11,1.08 0.32,1.15 1.07,0.17 0.93,-0.33 0.88,-1.31 -0.03,-0.65 -0.95,-0.37 -0.96,-0.37z"/>
   <polygon class="fil2" points="0.01,39.52 8.93,39.52 8.94,36.72 0.02,36.71 "/>
   <polygon class="fil5" points="0.02,33.92 8.92,33.93 8.91,31.13 0.01,31.12 "/>
   <path class="fil7" d="M17.18 14.44c0.1,0.34 0.22,0.45 0.23,0.88 0.02,1.64 -1.81,2.27 -2.88,1.29 -0.4,-0.36 -0.5,-0.74 -0.54,-1.47l-0.04 0.5 -1.01 0 -0.03 0.32c0.2,0.12 0.44,0.16 0.8,0.64 -0.17,0.01 -0.74,-0.04 -0.76,0.09 -0,0.02 -0.02,0.03 -0.02,0.04 -0.07,0.23 -0.03,0.49 -0.04,0.73 -0.4,0.2 0.01,0 -0.42,0.41 -0.15,0.14 -0.34,0.28 -0.42,0.48l-0.06 0.39c0.25,-0.07 0.34,-0.15 0.59,-0.44 0.07,-0.08 0.03,-0.01 0.06,-0.08 0.05,-0.1 0.03,0.01 0.01,-0.07 0.07,0.2 -0.21,0.36 -0.34,0.48 -0.27,0.26 -0.32,0.22 -0.32,0.75 0.27,-0.08 0.12,0.01 0.32,-0.17 0.44,-0.41 0.43,-0.38 0.43,-0.78 0.15,-0.08 0.34,-0.04 0.59,-0.05l0.05 0.31c0.2,0.08 0.43,0.05 0.64,0.05 -0.01,-0.01 -0.02,-0.02 -0.02,-0.01l-0.12 0.01c-0.5,0.15 -0.67,0.4 -0.9,0.62 -0.16,0.15 -0.17,0.2 -0.14,0.45 0.43,0.03 0.18,-0 0.59,-0.38 0.61,-0.56 1.49,-0.55 2.35,-0.55 1.14,-0 1.95,-0.02 2.6,0.78 0.15,0.18 0.06,0.17 0.39,0.15 -0.01,-0.4 -0.21,-0.6 -0.44,-0.74 -0.1,-0.06 -0.65,-0.45 -0.74,-0.33 1.62,0 1.34,0.15 1.91,-0.39 0.26,-0.24 0.23,-0.17 0.23,-0.63 -0.34,0.08 -0.07,-0.04 -0.29,0.14 -0.01,0 -0.13,0.13 -0.15,0.16 -0.1,0.1 -0.17,0.2 -0.26,0.29l-0.01 -0.8 -0.53 -0.02c-0,-0.81 0.14,-0.97 -0.56,-1.19 0,-0.33 0.09,-1.96 -0.11,-2.11 -0.18,-0.11 -0.2,-0.09 -0.34,0.04 -0.16,0.15 -0.04,0.14 -0.33,0.21z"/>
   <path class="fil7" d="M4.49 2.59c-0.04,0.41 0.78,4.12 0.92,4.84 0.16,0.8 0.32,1.59 0.48,2.41 0.08,0.42 0.07,0.87 0.6,0.83 0.62,-0.04 0.65,-0.24 0.59,-0.81 0.24,-0.11 1.31,-1.08 1.71,-1.33 0.02,0.58 0.07,1.19 0.12,1.77 0.07,0.86 -0.06,1.2 0.59,1.26 -0.27,0.09 -0.33,0.08 -0.36,0.42 0.67,-0.03 0.5,-0.36 0.58,-0.51 0.04,-0.08 -0.01,0.03 0.06,-0.09 0.19,-0.31 0.33,-3.64 0.36,-4.09 0.08,-1.08 0.21,-1.47 -1.08,-1.33 -0.64,0.07 -0.38,1.11 -0.32,2.04 -0.16,0.07 -0.27,0.2 -0.42,0.31 -0.29,0.21 -1.11,0.95 -1.36,1.08l-1.41 -7.07c-0.31,0.07 0.11,-0.09 -0.09,0.07l-0.42 0.18c-0.58,0.13 -0.38,-0.09 -0.57,0.01z"/>
   <path class="fil9" d="M13.81 21.64c0.23,0.04 0.09,0.06 0.22,-0.07 -0.07,0.09 -0.02,0.03 -0,0.07 0.01,0.02 0.08,0.09 0.18,0.09 0.28,0.02 0.01,0.06 0.21,-0.12 0.09,0.18 0.03,0.13 0.27,0.1 0.07,-0.35 0.02,-0.14 0.22,-0.16 0.23,-0.02 0.14,-0.08 0.14,-0.26 0.25,0.01 0.36,-0.04 0.2,-0.29 0.27,-0.1 0.2,0 0.22,-0.39 1.13,-0.01 0.51,0 0.94,0.21 -0.11,0.15 -0.09,0.04 -0.07,0.29 0.15,0.07 0.11,0 0.23,0.06 -0.13,0.32 0.08,0.26 0.27,0.27 -0.03,0.25 -0.06,0.11 0.11,0.21 0.18,-0.01 0.1,0.04 0.2,-0.09l0.16 0.18c0.2,-0.05 0.13,-0.13 0.23,-0.11 0.14,0.03 -0.11,0.09 0.26,0.07 0.13,-0.51 0.33,0.21 0.39,-0.43 0.24,0.07 0.19,0.06 0.23,-0.14 0.03,-0.13 -0.09,0.02 0.02,-0.15 0.01,-0.02 0.05,-0.02 0.14,-0.12 -0.02,-0.24 0.03,-0.07 -0.11,-0.24 0.24,-0.09 0.09,-0 0.16,-0.19 -0.08,-0.14 -0.04,-0.1 -0.17,-0.16 0.08,-0.2 0.14,-0.04 0.02,-0.3 -0.07,-0.13 0,0.07 -0.07,-0.14 -0.05,-0.15 -0.01,-0.38 -0.64,-0.64 -0.78,-0.33 -2.79,-0.31 -3.6,-0.08 -0.48,0.13 -1.12,0.5 -0.8,0.99 -0.25,0.06 -0.28,0.2 -0.1,0.36 -0.24,0.11 -0.08,-0.02 -0.16,0.19 0.07,0.14 0.04,0.1 0.17,0.16 -0.08,0.19 -0.11,-0 -0.07,0.2 0.04,0.19 0.06,0.12 0.24,0.13 -0.05,0.19 -0.06,0.09 -0.01,0.28 0.18,0.04 0.09,0.03 0.27,-0.01 0,0.32 0,0.12 0.1,0.22z"/>
   <path class="fil9" d="M21.63 15.02c-0.12,0.35 -0.05,2.7 -0.08,3.32l-0.24 0c-0.03,0.23 -0.02,0.22 -0.09,0.38 0.13,0.05 0.06,-0.04 0.1,0.13 0,0.37 -0.05,0.78 0.08,1.08 0.43,0.14 1,0.03 1.48,0.07 -0.08,0.43 -0.14,0.47 0.08,0.59 0.24,-0.12 0.05,0.04 0.2,-0.47 0.29,-1 2.13,-1.21 2.43,0.16 0.03,0.13 0.04,0.21 0.11,0.28 0.17,0.13 1,0.08 1.27,0.05 0.17,-0.18 0.17,-0.27 0.21,-0.52l-1.33 -0.02c-0.22,-0.36 -0.12,-0.42 -0.67,-0.84 -0.03,-0.35 0.05,-0.59 -0.1,-0.84l-3.19 -0.03 -0.01 -3.39 -0.26 0.05z"/>
   <path class="fil10" d="M15.44 13.88c-1.86,0.28 -1.55,3.29 0.51,2.98 0.78,-0.12 1.37,-0.82 1.24,-1.73 -0.11,-0.79 -0.84,-1.38 -1.75,-1.25z"/>
   <path class="fil7" d="M20.13 18.72c0.17,-0.08 0.1,-0.03 0.22,-0.26 0.04,-0.07 0.01,-0.05 0.06,-0.11 0.59,-0.02 0.39,-0.04 0.46,0.09 0.16,0.29 -0.04,0.2 0.25,0.28l0.12 -0c0.08,-0.15 0.07,-0.15 0.09,-0.38 0.04,-1.09 -0.02,-2.28 -0.01,-3.39 0,-0.29 0.08,-0.67 -0.16,-0.71 -0.56,-0.1 0.02,0.89 -0.41,1.31 -0.14,0.14 -0.27,0.27 -0.4,0.38 -0.04,-0.46 0.09,-1.33 -0.08,-1.67l-0.27 -0.01c-0.16,0.31 -0.09,3.47 -0.09,4.09 -0.27,0.02 -0.17,-0.04 -0.35,0.08 -0.05,0.03 -0.18,0.19 -0.24,0.24 -0.25,0.25 -0.29,0.2 -0.27,0.71 0.15,-0.06 0.08,-0.03 0.18,-0.1l0.32 -0.32c0.26,-0.27 0.11,-0.21 0.59,-0.23z"/>
   <path class="fil11" d="M23.89 21.65c0.2,-0.03 0.04,0.03 0.21,-0.08 0.14,0.2 -0.03,0.07 0.16,0.18 0.24,-0.07 0.03,0.03 0.21,-0.15 0.13,0.12 0.03,0.08 0.21,0.13 0.23,-0.15 -0,0.02 0.11,-0.14 0.14,-0.21 0.08,0.18 0.29,-0.09 0.13,-0.16 0.02,-0.02 0.03,-0.19 0.19,-0.01 0.41,-0.01 0.2,-0.28l0.22 -0.11c-0.02,-0.2 0.04,-0.11 -0.12,-0.23 0.18,-0.19 0.27,-0.21 -0.02,-0.37 0.08,-0.19 0.07,-0.01 0.07,-0.17 -0.01,-0.26 -0.14,-0.05 -0.21,-0.25 -0,-0 0,-0.12 -0.02,-0.19 -0.21,-0.06 -0.18,0.03 -0.25,-0 -0.1,-0.05 0.03,-0.02 -0.09,-0.2 -0.16,-0.02 -0.08,0.08 -0.33,-0.05l-0.07 -0.04c-0.12,-0.03 -0.06,-0.03 -0.25,0.11 -0.07,-0.1 -0.06,-0.14 -0.19,-0.1 -0.22,0.07 -0.03,-0.04 -0.15,0.21 -0.27,-0.19 -0.28,-0.04 -0.28,0.21 -0.3,-0.02 -0.33,0.03 -0.21,0.29l-0.21 0.12c0.03,0.33 0.15,0.01 0.02,0.32 -0,0.01 -0.2,0.07 0.13,0.29 -0.11,0.11 -0.1,0.06 -0.07,0.25 0.16,0.1 0.11,0.01 0.17,0.06 0.14,0.1 0.01,0.01 0.02,0.12 0.02,0.24 0.1,0.15 0.3,0.16 -0,0.35 -0,0.11 0.09,0.21z"/>
   <path class="fil7" d="M15.4 14.4c-1.25,0.41 -0.72,2.32 0.62,1.93 0.44,-0.13 0.85,-0.68 0.65,-1.28 -0.07,-0.21 -0.32,-0.48 -0.45,-0.56 -0.24,-0.15 -0.54,-0.17 -0.82,-0.09z"/>
   <path class="fil12" d="M20.18 11.26c-0.23,0.28 -0.48,0.69 -0.06,1.09 0.38,0.37 0.79,0.22 1.08,-0.08 0.17,0.07 0.1,0.07 0.33,0.11 -0.2,-0.24 -0.11,0.19 -0.22,-0.29l0.35 0.24c-0.24,-0.5 0.02,-0.15 0.07,-0.55 0.03,-0.29 -0.2,-0.32 -0.34,-0.39 -0.01,-0.01 -0.03,-0.02 -0.04,-0.02 -0.01,-0.01 -0.03,-0.02 -0.04,-0.03 0.32,-0.35 -0.03,-0.87 -0.62,-0.72 -0.12,0.03 -0.83,-0.21 -0.72,0.36 0.03,0.18 0.11,0.19 0.22,0.27z"/>
   <path class="fil7" d="M12.06 18.35l0.03 -0.85 -0.82 -0c-0.04,-0.36 0.03,-0.83 -0.06,-1.11l-0.36 -0.05c-0.19,0.32 -0.12,1.1 -0.1,1.55 0.01,0.3 0.1,0.42 0.36,0.47 0.2,0.04 0.3,-0.06 0.27,0.17 -0.04,0.26 0.01,0.05 -0.28,0.16l0.01 0.53 0.26 0.06 -0 0.78 0.43 0.02 0.09 -1.69 0.17 -0.03z"/>
   <path class="fil13" d="M10.13 1.45c-1.12,0.21 -0.77,1.84 0.3,1.65 0.42,-0.08 0.76,-0.46 0.67,-0.98 -0.07,-0.42 -0.49,-0.76 -0.97,-0.67z"/>
   <path class="fil14" d="M2.6 40.63c-1,0.33 -0.51,1.84 0.51,1.52 0.95,-0.3 0.55,-1.87 -0.51,-1.52z"/>
   <path class="fil14" d="M17.86 44.32c-0.41,0.09 -0.73,0.48 -0.6,0.98 0.25,0.93 1.76,0.71 1.5,-0.42 -0.12,-0.52 -0.58,-0.63 -0.9,-0.57z"/>
   <path class="fil15" d="M14.69 21.72c0.18,0.09 1.99,0.04 2.44,0.03 -0.15,-0.12 0.14,-0.03 -0.18,-0.09 -0.17,-0.11 -0.14,0.04 -0.11,-0.21 -0.18,-0.01 -0.4,0.06 -0.27,-0.27 -0.12,-0.06 -0.08,0.01 -0.23,-0.06 -0.03,-0.25 -0.04,-0.14 0.07,-0.29 -0.43,-0.21 0.2,-0.22 -0.94,-0.21 -0.02,0.39 0.05,0.3 -0.22,0.39 0.16,0.25 0.05,0.3 -0.2,0.29 -0.01,0.17 0.08,0.24 -0.14,0.26 -0.2,0.02 -0.14,-0.19 -0.22,0.16z"/>
   <path class="fil13" d="M4.53 0.72c-0.75,0.38 -0.23,1.41 0.5,1.11 0.26,-0.11 0.44,-0.45 0.31,-0.79 -0.1,-0.27 -0.45,-0.49 -0.81,-0.31z"/>
   <path class="fil16" d="M24.13 20.03c-0.06,0.03 -0.51,0.1 -0.33,0.78 0.06,0.24 0.48,0.47 0.8,0.32 0.82,-0.39 0.18,-1.46 -0.47,-1.1z"/>
   <path class="fil16" d="M17.23 20c-0.87,0.48 -0.18,1.38 0.38,1.13 0.05,-0.02 0.32,-0.22 0.34,-0.25 0.33,-0.47 -0.3,-1.12 -0.72,-0.88z"/>
   <path class="fil16" d="M14.11 20.03c-0.52,0.31 -0.6,0.71 -0.05,1.05 0.24,0.15 0.25,0.14 0.49,0.03 0.03,-0.01 0.16,-0.09 0.17,-0.1 0.15,-0.11 0.06,0.04 0.14,-0.18 0.12,-0.34 0.05,-0.63 -0.27,-0.8 -0.28,-0.15 -0.23,-0.14 -0.47,-0z"/>
   <path class="fil11" d="M20.13 18.72l0.03 0.75c0.26,0.06 0.67,0.06 0.92,0l0.04 -0.75c-0.29,-0.08 -0.09,0.01 -0.25,-0.28 -0.07,-0.12 0.13,-0.11 -0.46,-0.09 -0.05,0.06 -0.02,0.03 -0.06,0.11 -0.11,0.23 -0.04,0.18 -0.22,0.26z"/>
   <path class="fil7" d="M22.91 14c0.28,0.16 0.79,0.08 1.13,0.07 0.13,-0.33 -0.05,-0.06 -0.11,-0.57 -0.03,-0.25 -0.09,-0.42 -0.33,-0.47 -0.57,-0.11 -0.45,0.46 -0.61,0.75l-0.09 0.22z"/>
   <rect class="fil7" x="9.09" y="12.68" width="0.83" height="9.1"/>
  </g>
 </g>
</svg>
