<?xml version="1.0" encoding="UTF-8"?>
<!DOCTYPE svg PUBLIC "-//W3C//DTD SVG 1.1//EN" "http://www.w3.org/Graphics/SVG/1.1/DTD/svg11.dtd">
<!-- Creator: CorelDRAW 2020 (64-Bit) -->
<svg xmlns="http://www.w3.org/2000/svg" xml:space="preserve" width="13.8603mm" height="19.9581mm" version="1.1" style="shape-rendering:geometricPrecision; text-rendering:geometricPrecision; image-rendering:optimizeQuality; fill-rule:evenodd; clip-rule:evenodd"
viewBox="0 0 32.99 47.51"
 xmlns:xlink="http://www.w3.org/1999/xlink"
 xmlns:xodm="http://www.corel.com/coreldraw/odm/2003">
 <defs>
  <style type="text/css">
   <![CDATA[
    .fil1 {fill:#8D8D8D}
    .fil0 {fill:#A51324}
    .fil4 {fill:#B0B0B0}
    .fil3 {fill:#C1C1C1}
    .fil2 {fill:#E9E9E9}
   ]]>
  </style>
 </defs>
 <g id="Capa_x0020_1">
  <metadata id="CorelCorpID_0Corel-Layer"/>
  <g id="_2711556269296">
   <path class="fil0" d="M8.28 12.57c1.04,-0.07 0.35,0.36 0.45,-0.65l-0.03 -4.1c0.06,0.06 0.1,0.14 0.16,0.19 0.05,0.05 0.1,0.12 0.16,0.18 0.82,0.73 1.26,0.35 2.36,0.37 0.7,0.02 0.53,0.01 0.79,0.12l-1.67 -0.02c-1.55,-0.06 -1.17,0.14 -1.31,0.45 1.11,0.32 2.14,-0.28 2.95,0.43l0.02 0.64c-0.72,0.59 -1.75,0.23 -3.06,0.43 0.46,0.72 -0.19,0.17 0.58,0.41l2.55 0.02c-1.07,0.38 -2.28,-0.33 -3.15,0.43 0.7,0.37 1.87,0.26 2.72,0.09 0.35,0.48 0.31,0.82 0.42,1.11l0.45 -0.04 0.01 -5.25 8.78 0.01 -0.03 14.16c-0.36,-0.23 0.04,-0.19 -0.57,-0.04 -1.09,0.27 -0.27,0.04 -0.57,0.28 0.15,0.6 0.16,0.68 0.17,0.65 0.01,-0.02 -0.05,0.12 -0.07,0.17 0.5,0.11 0.33,0.16 0.62,0.32 0.04,0.02 0.1,0.06 0.14,0.08 0.04,0.02 0.09,0.05 0.14,0.08l0.53 0.3c0.04,0.04 0.08,0.08 0.12,0.12l-0.32 0.19c-0.78,-0.58 0.98,0.11 -0.56,-0.31l-0.66 0.96c-1.07,-0.62 -1.07,-0.42 -1.68,0.34l-0.31 0.37c-0.31,0.3 -0.86,0.56 -1.01,0.98 0.69,0.24 0.99,0.41 1.93,0.21 -0.14,-0.89 -0.01,-0.78 -0.82,-1.15 0.01,-0 0.7,-0.55 1.1,0.56 0.3,-1 -0,-0.59 0.68,-0.91 -0.2,1.06 -0.11,0.14 0.03,0.64l0.72 1.08c-0.78,-0.46 -0.73,-0.66 -1.5,-0.56 0.01,0.06 0.02,0.13 0.03,0.17 0.01,0.04 0.03,0.13 0.03,0.18l0.09 0.63c0.74,0.06 0.56,0.01 1.13,-0.42 -0.6,1.17 -0.72,0.82 0.43,2.14 -0.95,-0.18 -0.03,-0.26 -1.13,-0.55 -0.58,-0.15 -0.53,-0.04 -1.05,0.12 0.09,0.54 0.2,0.46 0.3,0.63 0.03,0.06 0.15,0.2 0.19,0.26 0.03,0.04 0.07,0.09 0.09,0.13 0.03,0.04 0.06,0.09 0.09,0.14 0.06,0.1 0.39,0.72 0.44,0.8 0.92,0.16 0.73,0.11 1.62,-0.1 0.07,-0.02 0.18,0.03 0.24,-0.06 0.05,-0.1 0.16,-0.05 0.28,-0.06l-0.07 1.44 0.02 1.44c-0.13,0.9 -0.29,0.93 0.4,1.62 -0.03,0.04 -0.09,0.08 -0.11,0.11l-0.33 0.49c-0.09,0.3 -0.05,0.49 0.01,0.82l0.09 1.34 0 9.69c-4.36,-0.18 -7.01,0.01 -10.62,-0.09l0.05 -3.34c-0.03,-1.19 0.01,-2.44 0.01,-3.65l-0.01 -21.44c-0.81,0.11 -2.06,0.05 -2.92,-0.02 -0.15,-1.05 -0.18,-2.59 -0.09,-3.9l-0.43 -0.02 -0.07 4.58c0.34,0.19 0.74,0.1 1.21,0.08 0.62,-0.01 1.22,0.08 1.62,0.49 -0.33,0.02 -0.06,-0.31 -0.02,0.88 0.01,0.5 0.02,1 0.04,1.5 -0.7,-0.01 -1.38,-0.01 -2.08,-0.03 -0.9,-0.02 -1.18,-0.05 -1.71,0.29 0.61,0.94 -0.62,0.02 0.37,0.25l1.11 -0.19c0.68,-0.06 1.6,-0.01 2.31,-0.02l-0.03 7.84c-2.13,0.13 -2.54,0.31 -3.39,-0.43l-0.37 -0.37c-0.01,0.9 -0.17,0.83 0.01,1.29 0.43,0.15 1.67,-0.51 3.82,-0.06 0,1.71 -0.05,2.06 -0.01,3.92 0.02,1.34 -0.03,3.02 0.1,3.71l-3.11 -0.01c-0.47,-0.09 0.19,-0.01 -0.46,-0.08l-0.33 0.02c-0.27,0.7 -0.02,0.07 0,1.29 0.07,-0.05 0.12,-0.13 0.18,-0.19l0.63 -0.55c0.42,-0.22 2.45,-0.06 2.96,-0.04l0.05 7.89c-1.75,-0.01 -1.68,0.18 -3.19,-0.22l-0.39 -0.07c-0.24,0.05 -0.33,0.33 -0.42,0.56l3.61 -0.03 0.63 0.8 11.38 0c0.3,-0.63 -0.04,-0.23 0.27,-0.79l2.52 -0.23c-0.15,-0.03 -0.68,-0.03 -0.85,-0.03 -0.53,0 -1.07,0.02 -1.6,0.02 -0.23,-1.08 -0.11,-4.27 -0.07,-5.5 0.08,-2.11 -0.81,-2.46 2.1,-2.44 0.93,0.01 1.02,0.31 1.7,0.82l-0.37 -1.56c-0.86,0.76 -2.3,0.55 -3.38,0.36 -0.2,-0.91 0.1,-1.08 -0.08,-1.95 -0.11,-0.56 -0.25,-0.49 -0.18,-0.68 0.12,-0.34 0.19,0.4 0.24,-0.72l0.03 -2.39c-0.03,-0.78 -0.02,-1.3 -0.05,-2.03 0.99,-0 2.28,-0.25 3.2,0.2l0.6 0.41 0 -1.71c-0.07,0.05 -0.13,0.13 -0.19,0.19 -0.06,0.05 -0.11,0.11 -0.18,0.17 -0.99,0.86 0.45,0.05 -0.6,0.43 -0.98,0.34 -2.38,0.04 -3.32,-0.14 0.06,-0.82 -0.09,-0.23 0.1,-1.08 0.14,-0.63 -0.15,-1.16 -0.03,-1.8 0.17,-0.86 -0.1,-0.81 -0.07,-2.06 0.07,-0.03 0.15,0.06 0.6,-0.02 -0.12,-1.22 0.02,-1.83 -0.1,-2.7 0.98,-0.01 2.16,-0.09 3.02,0.11 0.52,0.12 -0.45,0.28 0.56,0.12 0.8,-0.13 0.24,-0.38 0.21,-1.37l-1.69 0.79c-0.81,0.01 -1.35,0.03 -2.17,-0.11 0.22,-0.57 0.14,-0.68 0.12,-1.26 -0.02,-0.51 -0.02,-1.02 0.24,-1.46 0.18,-0.02 2.19,0.01 2.6,0.25 -0.34,-0.89 0.37,-1.13 -0.38,-1.01l1.11 0.02c0.03,-0.06 0.12,0.01 0.18,-0.01 -0.42,-0.82 0.1,-0.14 -0.62,-0.5 -0,-0 -0.59,-0.12 -0.67,-0.15l0.09 -5.9c0.01,-0.58 -0.09,-1.28 -0.09,-2.25l-1.73 0.45c-1.43,0.04 -1.49,-0.25 -1.52,-0.2l0.25 0.18c0.35,-0.47 2.25,-0.21 3,-0.21l0.01 -3 -1.62 0c0.02,-0.47 -0.36,-0.7 -0.66,-1l2.61 0.01c2.02,-0.16 4.04,0.13 6.08,0.09 0.51,-0.01 0.78,-0.18 1.04,-0.61 -0.57,-0.53 0.1,-0.24 -0.97,-0.45 -1.09,-0.21 -5.43,0.02 -6.67,0.02 -0.15,-1.35 0.32,-3.68 -0.25,-4.69l-1.07 -0.03c0.06,0.07 0.14,0.12 0.21,0.19l0.52 0.5c0.28,0.35 0.26,1.08 0.25,1.67l-0.07 1.93c-0.14,0.54 -0.02,0.23 -0.27,0.57 -1.26,-0.17 -0.99,0.06 -0.97,-1.62 0.01,-0.63 0.12,-1.52 -0.1,-2.01l-1.07 0.07 0.81 0.82c0.23,0.4 0.17,1.49 0.09,1.96 -0.14,0.78 0.05,0.26 -0.27,0.68l-0.64 0.03c-0.33,-0.47 -0.29,-1.16 -0.2,-1.74 -0.35,0.07 -0.48,0.09 -0.83,0.17l-1.97 0.21 2.07 0.38c1.02,0.42 -0.03,-0.43 0.34,0.26 0.2,1.14 -0.81,0.71 -2.2,0.71l-5.37 -0.07c-0.4,0 -0.77,0.01 -1.17,0.02 -0.76,0.03 -0.62,-0.1 -0.58,0.05 -0.09,-0.08 -0.67,0.25 -0.31,-0.8 0.14,-0.42 0.29,-0.23 0.72,-0.56 -0.6,-0.31 -0.61,-0.25 -1.2,-0.39 0.07,0.43 0.13,0.54 0.05,1.03 -0.09,0.6 -0.05,0.4 -0.28,0.69l-0.64 -0.01 -0.35 -1.31c-0.01,-0.5 0.03,-0.99 0.01,-1.52 0.57,-0.03 4.13,-0.26 4.33,-0.38 -1.18,-0.23 -2.5,0.06 -3.69,-0.12 -0.96,-0.15 -0.29,0.06 -0.92,-0.32l-0.02 3.7c-0.77,-0.13 -0.33,-0.11 -1.16,-0.01 -0.04,-0.89 -0.03,-1.77 -0.06,-2.66 -0.05,-1.8 0.12,-1.28 0.59,-1.76 0.06,-0.06 0.15,-0.05 0.2,-0.18 0.05,-0.14 0.15,-0.11 0.21,-0.17l-0.95 -0.11c-0.42,0.49 -0.21,-0.12 -0.29,0.94 -0.09,1.2 0.2,2.75 -0.12,3.8 -0.96,0.34 -3.15,0.18 -4.46,0.01 -1.07,-0.13 -3.56,-0.46 -4.26,0.49 0.57,0.97 1.83,0.48 2.75,0.51l14.15 0c1.45,-0.03 3.22,-0.22 4.81,0.04l0.77 0.23c-3.67,-0.04 -7.48,-0.2 -11.13,-0.02 -1.09,0.05 -1.73,0.43 -2.77,0.67 -0.1,0.18 -0.08,0.09 -0.2,0.49l-0.1 5.42z"/>
   <path class="fil1" d="M7.94 14.4l0.37 0 0.43 0.02c-0.09,1.31 -0.06,2.85 0.09,3.9 0.86,0.08 2.11,0.14 2.92,0.02l0.01 21.44c-0,1.21 -0.05,2.46 -0.01,3.65l-0.05 3.34c3.61,0.1 6.27,-0.09 10.62,0.09l-0 -9.69 0 -1.46c-0.44,0.4 -0.54,0.14 -0.67,1.55 -0.11,1.21 0.15,0.35 -0.12,0.35 -1.02,0.03 -0.08,-0.14 -0.71,1.06l-1.51 -0.31 -0.12 -0.13c-0.32,-0.43 0.56,-0.4 -0.36,-0.34 -0.25,0.02 -0.17,-0.24 -0.55,0.48 -0.01,0.02 -0.03,0.15 -0.04,0.12 -0.01,-0.03 -0.03,0.08 -0.04,0.12 -0.02,-0.5 0.03,-0.2 -0.18,-0.65 -1.27,0.39 0.02,0.23 -1.19,0.28l0.11 -0.02 -1.88 0.13c-0.03,0.01 -0.09,0.01 -0.12,0.01l-1.26 0.04c-0.61,-0.14 0.43,-0.67 -0.69,-0.04 -0.77,0.43 -0.09,-0.07 -0.28,0.34l-0.06 0.77c0.21,-0.09 0.19,0.44 0.05,-0.32l-0.43 -1.22c0.18,-1.76 -0.65,-0.96 0.5,-2l-0.33 -0.09c-0.09,-0.02 -0.34,-0.09 -0.41,-0.12 0.4,-0.36 -0.18,-0.27 0.64,-0.3 -0.58,-0.27 -0.14,0.21 -0.54,-0.34l0.29 -2.01c-0.57,-0.74 -0.17,-0.38 -0.13,-0.62 0.21,-1.19 0.04,-0.35 -0.08,-1.33l0.05 -0.73c0.08,-0.62 0.05,-0.94 0.17,-1.42 1.53,0.27 0.33,0.48 1.56,1.21 0.04,0.03 0.43,0.18 0.43,0.18 1.41,0.46 1.01,-0.05 1.22,-0.2 -1.46,-0.15 -1.59,0.12 -1.5,-0.87 0.45,-0.11 0.49,-0.24 1.25,0.29 0.51,0.35 0.16,0.04 0.47,0.6 0.48,-0.97 0.01,-0.3 0.64,-0.67 0.12,-0.07 0.55,-0.21 0.66,-0.22 0.27,-0.01 0.56,0.19 0.68,0.31l0.28 0.35c0.05,0.06 0.12,0.25 0.16,0.21 0.04,-0.04 0.1,0.15 0.16,0.22 -0.3,-1.44 -0.48,-0.85 0.43,-1.27 0.32,0.14 -0.19,-0.58 0.41,0.41 0.83,1.37 -0.71,0.02 1.25,1.44l0.58 -0.2c0.01,-0.01 0.05,-0.03 0.05,-0.03l0.23 0.03c0.03,-0 0.1,-0 0.12,-0.01l0.52 -0.16c-0.41,0.93 -0.57,0.67 -0.16,1.47 0,-0 0.89,0.71 0.34,-0.67l0.07 -1.44c-0.11,0.01 -0.22,-0.03 -0.28,0.06 -0.05,0.09 -0.17,0.05 -0.24,0.06 -0.89,0.21 -0.69,0.26 -1.62,0.1 -0.05,-0.08 -0.38,-0.7 -0.44,-0.8 -0.02,-0.04 -0.06,-0.09 -0.09,-0.14 -0.03,-0.04 -0.07,-0.09 -0.09,-0.13 -0.04,-0.05 -0.15,-0.2 -0.19,-0.26 -0.1,-0.17 -0.21,-0.09 -0.3,-0.63 0.52,-0.16 0.47,-0.27 1.05,-0.12 1.1,0.29 0.18,0.37 1.13,0.55 -1.15,-1.32 -1.02,-0.97 -0.43,-2.14 -0.57,0.43 -0.39,0.48 -1.13,0.42l-0.09 -0.63c-0.01,-0.05 -0.03,-0.14 -0.03,-0.18 -0.01,-0.04 -0.02,-0.11 -0.03,-0.17 0.77,-0.1 0.72,0.1 1.5,0.56l-0.72 -1.08c-0.15,-0.5 -0.23,0.43 -0.03,-0.64 -0.68,0.32 -0.38,-0.09 -0.68,0.91 -0.4,-1.1 -1.09,-0.56 -1.1,-0.56 0.8,0.36 0.68,0.26 0.82,1.15 -0.93,0.2 -1.24,0.02 -1.93,-0.21 0.15,-0.42 0.69,-0.68 1.01,-0.98l0.31 -0.37c0.61,-0.76 0.61,-0.96 1.68,-0.34l0.66 -0.96c1.55,0.43 -0.22,-0.26 0.56,0.31l0.32 -0.19c-0.04,-0.04 -0.08,-0.08 -0.12,-0.12l-0.53 -0.3c-0.04,-0.02 -0.09,-0.05 -0.14,-0.08 -0.04,-0.02 -0.1,-0.06 -0.14,-0.08 -0.28,-0.16 -0.12,-0.21 -0.62,-0.32 0.02,-0.06 0.08,-0.2 0.07,-0.17 -0.01,0.02 -0.02,-0.05 -0.17,-0.65l-1.32 0.18 -0.3 1.03c-0.58,-0.42 0.05,-0.65 -0.9,-0.78 -0.85,0.93 0.05,-0.94 -0.05,0.33 -0.03,0.39 0.3,0.28 -0.12,0.49 -0.13,0.48 -0.02,0.15 -0.97,0.17 -0.25,-0.35 -0.3,-0.84 -0.75,-1.24 -0.05,0.3 -0.19,1.05 -0.22,1.19l-0.97 -0.13c-0.03,-0.01 -0.1,-0.02 -0.13,-0.03l-0.87 0.66 -1.03 -0.5c-0.01,0.07 -0.04,0.33 -0.06,0.37 -0.17,0.49 -0.51,0.62 -0.41,1.24 -0.12,-1.33 -0.22,-1.74 0.54,-2.43 -0.51,-0.61 -0.19,-0.28 -0.58,-0.38l0.07 -5.58 -3.08 -0c0.24,-0.44 0.67,-0.2 1.34,-0.19 1.57,0.03 1.46,-0.29 1.74,-0.62l-3.08 -0.05c0.75,-0.66 1.98,0.14 3.08,-0.43 -0.36,-0.19 -0.15,-0.14 -0.85,-0.2 -0.12,-0.01 -0.72,0.02 -0.89,0.02 -0.71,0.02 -1.05,0.06 -1.39,-0.25l3.35 -0.04c1.78,-0.38 0.38,0.12 1.06,-0.57 -1.11,0 -2.35,0.02 -3.45,-0.02 -1.67,-0.05 -0.88,-1.12 -2.12,0.35z"/>
   <path class="fil2" d="M12.68 12.63l0.42 0.43c-0.06,0.03 -0.12,0.04 -0.18,0.06 -1.25,0.49 -0.46,0.28 -1.3,0.91l-0.03 -1.07 -2.94 0.16c-0.04,-0.01 -0.1,-0.04 -0.15,-0.05 -0.59,-0.13 -0.57,-0.09 -1.18,-0.12 -1.63,-0.08 -3.8,-0.17 -5.38,-0.38 0.79,0.79 0.66,0.24 0.43,1.45 0.2,0.11 4.77,0.52 5.58,0.36 1.25,-1.47 0.45,-0.4 2.12,-0.35 1.11,0.03 2.34,0.02 3.45,0.02 -0.68,0.69 0.72,0.19 -1.06,0.57l-3.35 0.04c0.34,0.32 0.68,0.27 1.39,0.25 0.16,-0 0.77,-0.04 0.89,-0.02 0.7,0.06 0.48,0.02 0.85,0.2 -1.1,0.57 -2.33,-0.23 -3.08,0.43l3.08 0.05c-0.28,0.33 -0.17,0.65 -1.74,0.62 -0.67,-0.01 -1.1,-0.25 -1.34,0.19l3.08 0 -0.07 5.58c0.39,0.1 0.06,-0.23 0.58,0.38 -0.76,0.69 -0.67,1.1 -0.54,2.43 -0.11,-0.62 0.24,-0.75 0.41,-1.24 0.02,-0.05 0.04,-0.3 0.06,-0.37l1.03 0.5 0.87 -0.66c0.03,0.01 0.1,0.02 0.13,0.03l0.97 0.13c0.03,-0.14 0.17,-0.89 0.22,-1.19 0.45,0.41 0.5,0.89 0.75,1.24 0.94,-0.02 0.84,0.31 0.97,-0.17 0.41,-0.22 0.08,-0.11 0.12,-0.49 0.11,-1.27 -0.79,0.6 0.05,-0.33 0.96,0.13 0.32,0.36 0.9,0.78l0.3 -1.03 1.32 -0.18c0.3,-0.25 -0.52,-0.02 0.57,-0.28 0.61,-0.15 0.21,-0.19 0.57,0.04l0.03 -14.16 -8.78 -0.01 -0.01 5.25z"/>
   <path class="fil3" d="M19.32 38.35l-0.1 -0.54c-0.01,-0.02 -0.05,-0.07 -0.07,-0.09 -0.02,-0.03 -1.12,-0.53 -1.55,-1.58l1.28 0.2c-0.04,-0.07 -0.12,-0.24 -0.14,-0.2 -0.01,0.01 -0.26,-0.2 -0.31,-0.9 -0,-0.04 0.01,-0.12 0.03,-0.17l1.35 -0.46c0.01,-0.02 0.03,-0.08 0.04,-0.11 0.01,-0.04 0.03,-0.1 0.04,-0.14 0.01,-0.05 0.03,-0.12 0.04,-0.17 0.02,-0.06 0.09,-0.34 0.11,-0.4 -0,-0 -0.1,-0.15 -0.34,0.03l0.26 -1.1c-0.05,0.05 -0.27,0.31 -0.33,0.35l-0.47 0.34c-0.09,0.07 -0.18,0.11 -0.28,0.16 0.28,-1.18 0.15,-0.62 -0.86,-0.86 0.77,-0.83 1.3,-0.25 0.69,-1.03 -1.16,-1.49 0.16,-1.17 -0.88,-0.79 0.22,-0.47 0.17,0.69 0.16,0.76 -1.4,-0.64 -0.02,0.08 -0.6,-0.55 -0.62,-0.67 1.02,0.35 -0.44,-0.52 0,0.29 0.01,0.51 0.03,0.81l0.05 0.54c0.01,0.07 0.02,0.27 0.03,0.33l0.24 0.47c-0.03,0.07 -0.04,0.1 -0.07,0.21 -0,0.01 -0.15,0.33 -0.21,0.38 -0.31,0.28 -0,0.26 -0.93,0.48l0.44 -0.38c0.65,-0.87 -0.01,-0.99 -0.41,-2.4l0.39 0.41c0,0 0.65,-0.05 0.1,-0.34 -0.78,-0.43 -0,-0.31 -0.4,0.14 -0.01,-1.23 -0.55,-0.58 0.72,-0.87 -1.91,0.49 -0.55,0.14 -1.07,-0.18 -0.31,-0.56 0.04,-0.24 -0.47,-0.6 -0.76,-0.53 -0.8,-0.4 -1.25,-0.29 -0.09,0.99 0.04,0.72 1.5,0.87 -0.21,0.14 0.19,0.66 -1.22,0.2 -0.01,-0 -0.39,-0.15 -0.43,-0.18 -1.23,-0.73 -0.03,-0.94 -1.56,-1.21 -0.13,0.47 -0.09,0.8 -0.17,1.42l-0.05 0.73c0.12,0.98 0.29,0.14 0.08,1.33 -0.04,0.24 -0.44,-0.12 0.13,0.62l-0.29 2.01c0.39,0.55 -0.05,0.07 0.54,0.34 -0.82,0.03 -0.24,-0.06 -0.64,0.3 0.06,0.03 0.32,0.1 0.41,0.12l0.33 0.09c-1.14,1.05 -0.32,0.24 -0.5,2l0.43 1.22c0.14,0.76 0.16,0.22 -0.05,0.32l0.06 -0.77c0.19,-0.41 -0.49,0.08 0.28,-0.34 1.12,-0.63 0.09,-0.1 0.69,0.04l1.26 -0.04c0.03,-0 0.09,-0.01 0.12,-0.01l1.88 -0.13 -0.11 0.02c1.2,-0.04 -0.08,0.11 1.19,-0.28 0.22,0.45 0.16,0.15 0.18,0.65 0.01,-0.04 0.03,-0.15 0.04,-0.12 0.01,0.03 0.03,-0.1 0.04,-0.12 0.39,-0.73 0.3,-0.47 0.55,-0.48 0.93,-0.06 0.04,-0.09 0.36,0.34l0.12 0.13z"/>
   <path class="fil4" d="M15.88 30.15c0.52,0.31 -0.84,0.66 1.07,0.18 -1.27,0.29 -0.73,-0.36 -0.72,0.87 0.4,-0.45 -0.38,-0.57 0.4,-0.14 0.54,0.3 -0.1,0.34 -0.1,0.34l-0.39 -0.41c0.39,1.41 1.06,1.53 0.41,2.4l-0.44 0.38c0.93,-0.21 0.62,-0.19 0.93,-0.48 0.06,-0.05 0.21,-0.37 0.21,-0.38 0.03,-0.11 0.04,-0.14 0.07,-0.21l-0.24 -0.47c-0.01,-0.06 -0.02,-0.26 -0.03,-0.33l-0.05 -0.54c-0.02,-0.3 -0.03,-0.52 -0.03,-0.81 1.46,0.86 -0.17,-0.15 0.44,0.52 0.58,0.63 -0.8,-0.08 0.6,0.55 0.01,-0.07 0.06,-1.23 -0.16,-0.76 1.03,-0.38 -0.29,-0.7 0.88,0.79 0.61,0.79 0.08,0.2 -0.69,1.03 1.01,0.24 1.13,-0.33 0.86,0.86 0.09,-0.06 0.18,-0.1 0.28,-0.16l0.47 -0.34c0.06,-0.05 0.28,-0.3 0.33,-0.35l-0.26 1.1c0.23,-0.18 0.34,-0.03 0.34,-0.03 -0.02,0.07 -0.09,0.35 -0.11,0.4 -0.01,0.05 -0.03,0.12 -0.04,0.17 -0.01,0.04 -0.02,0.11 -0.04,0.14 -0.01,0.03 -0.03,0.09 -0.04,0.11l-1.35 0.46c-0.02,0.05 -0.03,0.13 -0.03,0.17 0.05,0.71 0.31,0.91 0.31,0.9 0.02,-0.04 0.11,0.12 0.14,0.2l-1.28 -0.2c0.43,1.06 1.52,1.56 1.55,1.58 0.02,0.02 0.06,0.07 0.07,0.09l0.1 0.54 1.51 0.31c0.62,-1.2 -0.32,-1.03 0.71,-1.06 0.26,-0.01 0.01,0.86 0.12,-0.35 0.13,-1.41 0.22,-1.15 0.67,-1.55l-0 1.46 -0.09 -1.34c-0.06,-0.33 -0.1,-0.52 -0.01,-0.82l0.33 -0.49c0.02,-0.02 0.08,-0.07 0.11,-0.11 -0.69,-0.69 -0.53,-0.73 -0.4,-1.62l-0.02 -1.44c0.54,1.38 -0.34,0.67 -0.34,0.67 -0.41,-0.8 -0.25,-0.55 0.16,-1.47l-0.52 0.16c-0.03,0 -0.1,0 -0.12,0.01l-0.23 -0.03c-0.01,0 -0.05,0.02 -0.05,0.03l-0.58 0.2c-1.96,-1.41 -0.42,-0.06 -1.25,-1.44 -0.6,-0.99 -0.09,-0.27 -0.41,-0.41 -0.91,0.42 -0.73,-0.17 -0.43,1.27 -0.06,-0.06 -0.12,-0.26 -0.16,-0.22 -0.04,0.04 -0.11,-0.15 -0.16,-0.21l-0.28 -0.35c-0.11,-0.11 -0.41,-0.32 -0.68,-0.31 -0.11,0.01 -0.54,0.15 -0.66,0.22 -0.63,0.37 -0.16,-0.3 -0.64,0.67z"/>
   <path class="fil1" d="M8.28 12.57c-1.43,-0.13 -2.44,-0.25 -4,-0.27 -2.04,-0.02 -2.47,-0.91 -2.67,1.47l0.75 0.25c0.23,-1.22 0.36,-0.66 -0.43,-1.45 1.57,0.21 3.75,0.3 5.38,0.38 0.61,0.03 0.59,-0.01 1.18,0.12 0.05,0.01 0.11,0.04 0.15,0.05l2.94 -0.16 0.03 1.07c0.84,-0.63 0.05,-0.42 1.3,-0.91 0.06,-0.02 0.12,-0.04 0.18,-0.06l-0.42 -0.43 -0.45 0.04c-0.11,-0.3 -0.07,-0.64 -0.42,-1.11 -0.85,0.16 -2.02,0.27 -2.72,-0.09 0.87,-0.76 2.08,-0.04 3.15,-0.43l-2.55 -0.02c-0.77,-0.24 -0.12,0.31 -0.58,-0.41 1.32,-0.2 2.34,0.16 3.06,-0.43l-0.02 -0.64c-0.81,-0.71 -1.84,-0.1 -2.95,-0.43 0.14,-0.31 -0.24,-0.51 1.31,-0.45l1.67 0.02c-0.26,-0.11 -0.08,-0.11 -0.79,-0.12 -1.1,-0.02 -1.55,0.36 -2.36,-0.37 -0.06,-0.06 -0.11,-0.13 -0.16,-0.18 -0.05,-0.05 -0.1,-0.13 -0.16,-0.19l0.03 4.1c-0.1,1.01 0.59,0.58 -0.45,0.65z"/>
   <path class="fil1" d="M13.74 14.33c-0.13,0.69 0.69,0.56 1.08,1.46 0.39,0.88 0.15,1.76 0.09,2.52l2.18 -0.07c-0.07,-0.85 -0.06,-1.51 -0.1,-2.29 -0.02,-0.29 -0.08,-0.88 -0.4,-1.03 -0.34,-0.16 -0.44,0.18 -0.44,0.18l0.23 2.16c-0.23,0.7 0.12,0.25 -0.49,0.5 -0.55,-0.31 -0.36,0.45 -0.41,-0.93 -0.03,-0.66 0.18,-0.75 -0.08,-1.39 -0.06,-0.14 -0.71,-0.86 -0.71,-0.87 -0.65,-0.55 -0.16,-0.28 -0.93,-0.26z"/>
   <path class="fil2" d="M14.33 27.98c0.21,0.26 -0.14,0.38 1.07,0.26 -0.32,0.81 -0.13,0.69 0.07,0.96 0.75,0.08 1.32,-0.11 1.45,-0.79 -1.27,-0.47 -0.27,-0.39 -1.46,-0 0.36,-0.59 0.83,-0.92 -0.09,-1.14 -0.79,-0.19 -0.93,0.09 -1.04,0.71z"/>
  </g>
 </g>
</svg>
