<?xml version="1.0" encoding="UTF-8"?>
<!DOCTYPE svg PUBLIC "-//W3C//DTD SVG 1.1//EN" "http://www.w3.org/Graphics/SVG/1.1/DTD/svg11.dtd">
<!-- Creator: CorelDRAW 2020 (64-Bit) -->
<svg xmlns="http://www.w3.org/2000/svg" xml:space="preserve" width="16.4012mm" height="21.8869mm" version="1.1" style="shape-rendering:geometricPrecision; text-rendering:geometricPrecision; image-rendering:optimizeQuality; fill-rule:evenodd; clip-rule:evenodd"
viewBox="0 0 46.16 61.6"
 xmlns:xlink="http://www.w3.org/1999/xlink"
 xmlns:xodm="http://www.corel.com/coreldraw/odm/2003">
 <defs>
  <style type="text/css">
   <![CDATA[
    .str0 {stroke:#373435;stroke-width:0.56;stroke-miterlimit:22.9256}
    .fil1 {fill:#373435}
    .fil3 {fill:#A45E4D}
    .fil2 {fill:#A51324}
    .fil0 {fill:#C7C7C7}
   ]]>
  </style>
 </defs>
 <g id="Capa_x0020_1">
  <metadata id="CorelCorpID_0Corel-Layer"/>
  <polygon class="fil0" points="46.16,35.07 28.09,35.06 28.1,60.28 23.61,60.26 23.55,35.06 -0,35.06 -0,61.6 46.02,61.33 "/>
  <rect class="fil1" x="23.69" y="17.12" width="0.34" height="26.41"/>
  <rect class="fil1" x="24.32" y="17.12" width="0.34" height="26.41"/>
  <rect class="fil1" x="24.96" y="17.12" width="0.34" height="26.41"/>
  <rect class="fil1" x="25.59" y="17.12" width="0.34" height="26.41"/>
  <rect class="fil1" x="26.23" y="17.12" width="0.34" height="26.41"/>
  <rect class="fil1" x="26.86" y="17.12" width="0.34" height="26.41"/>
  <rect class="fil1" x="27.56" y="17.12" width="0.34" height="26.41"/>
  <rect class="fil1" x="23.69" y="42.14" width="4.41" height="0.44"/>
  <rect class="fil1" x="23.69" y="40.87" width="4.41" height="0.44"/>
  <rect class="fil1" x="23.69" y="39.22" width="4.41" height="0.44"/>
  <rect class="fil1" x="23.69" y="37.95" width="4.41" height="0.44"/>
  <rect class="fil1" x="23.69" y="36.81" width="4.41" height="0.44"/>
  <rect class="fil1" x="23.69" y="35.54" width="4.41" height="0.44"/>
  <rect class="fil1" x="23.69" y="33.89" width="4.41" height="0.44"/>
  <rect class="fil1" x="23.69" y="32.62" width="4.41" height="0.44"/>
  <rect class="fil1" x="23.69" y="31.35" width="4.41" height="0.44"/>
  <rect class="fil1" x="23.69" y="30.09" width="4.41" height="0.44"/>
  <rect class="fil1" x="23.69" y="28.44" width="4.41" height="0.44"/>
  <rect class="fil1" x="23.69" y="27.17" width="4.41" height="0.44"/>
  <rect class="fil1" x="23.69" y="25.77" width="4.41" height="0.44"/>
  <rect class="fil1" x="23.69" y="24.5" width="4.41" height="0.44"/>
  <rect class="fil1" x="23.69" y="22.85" width="4.41" height="0.44"/>
  <rect class="fil1" x="23.69" y="21.59" width="4.41" height="0.44"/>
  <rect class="fil1" x="23.69" y="20.44" width="4.41" height="0.44"/>
  <rect class="fil1" x="23.69" y="19.18" width="4.41" height="0.44"/>
  <rect class="fil1" x="23.69" y="17.53" width="4.41" height="0.44"/>
  <rect class="fil1" x="25.34" y="12.63" width="0.31" height="0.64"/>
  <rect class="fil1" x="25.13" y="13.47" width="0.31" height="0.64"/>
  <rect class="fil1" x="24.85" y="14.44" width="0.31" height="0.64"/>
  <rect class="fil1" x="24.58" y="15.41" width="0.31" height="0.64"/>
  <rect class="fil1" x="24.26" y="16.28" width="0.31" height="0.64"/>
  <rect class="fil1" x="25.97" y="12.59" width="0.31" height="0.64"/>
  <rect class="fil1" x="26.18" y="13.43" width="0.31" height="0.64"/>
  <rect class="fil1" x="26.46" y="14.4" width="0.31" height="0.64"/>
  <rect class="fil1" x="26.73" y="15.37" width="0.31" height="0.64"/>
  <rect class="fil1" x="27.05" y="16.24" width="0.31" height="0.64"/>
  <rect class="fil2" x="21.15" y="-0" width="1.57" height="31.39"/>
  <rect class="fil3" x="-0" y="34.36" width="45.7" height="0.71"/>
  <path class="fil1 str0" d="M17.58 30.99c0.98,0.14 1.74,0.96 1.74,1.95 0,0.99 -0.75,1.81 -1.74,1.95l0 0 -0 0c-0.1,0.01 -0.2,0.02 -0.3,0.02 -0.1,0 -0.2,-0.01 -0.3,-0.02l-12.8 0 0 -0.22c-1.13,0 -2.04,-0.88 -2.04,-1.97 0,-1.09 0.91,-1.97 2.04,-1.97l13.4 0 0 0.26z"/>
  <rect class="fil2" x="22.72" y="7.83" width="6.64" height="2.33"/>
  <rect class="fil2" x="24.61" y="9.72" width="2.36" height="2.36"/>
  <path class="fil2" d="M22.72 26.91l-20.58 0 0 4.41 20.58 0 0 -4.41zm-19.47 -2.52l0.9 0 0 2.46 -0.9 0 0 -2.46zm15.89 -3.8l-8.78 0 0 6.29 8.78 0 0 -6.29z"/>
 </g>
</svg>
