<?xml version="1.0" encoding="UTF-8"?>
<!DOCTYPE svg PUBLIC "-//W3C//DTD SVG 1.1//EN" "http://www.w3.org/Graphics/SVG/1.1/DTD/svg11.dtd">
<!-- Creator: CorelDRAW 2020 (64-Bit) -->
<svg xmlns="http://www.w3.org/2000/svg" xml:space="preserve" width="14.2253mm" height="14.2249mm" version="1.1" style="shape-rendering:geometricPrecision; text-rendering:geometricPrecision; image-rendering:optimizeQuality; fill-rule:evenodd; clip-rule:evenodd"
viewBox="0 0 28.35 28.35"
 xmlns:xlink="http://www.w3.org/1999/xlink"
 xmlns:xodm="http://www.corel.com/coreldraw/odm/2003">
 <defs>
  <style type="text/css">
   <![CDATA[
    .fil0 {fill:url(#id0)}
    .fil1 {fill:url(#id1)}
   ]]>
  </style>
  <linearGradient id="id0" gradientUnits="userSpaceOnUse" x1="1.3" y1="12.7" x2="16.23" y2="12.7">
   <stop offset="0" style="stop-opacity:1; stop-color:#001E44"/>
   <stop offset="0.439216" style="stop-opacity:1; stop-color:#0072B6"/>
   <stop offset="0.682353" style="stop-opacity:1; stop-color:#005D97"/>
   <stop offset="0.858824" style="stop-opacity:1; stop-color:#004778"/>
   <stop offset="0.964706" style="stop-opacity:1; stop-color:#0F3049"/>
   <stop offset="1" style="stop-opacity:1; stop-color:#1E1819"/>
  </linearGradient>
  <linearGradient id="id1" gradientUnits="userSpaceOnUse" x1="13.61" y1="19.34" x2="27.05" y2="19.34">
   <stop offset="0" style="stop-opacity:1; stop-color:#E24640"/>
   <stop offset="0.141176" style="stop-opacity:1; stop-color:#9A2320"/>
   <stop offset="0.321569" style="stop-opacity:1; stop-color:#510000"/>
   <stop offset="0.65098" style="stop-opacity:1; stop-color:#DF5F54"/>
   <stop offset="0.788235" style="stop-opacity:1; stop-color:#510000"/>
   <stop offset="1" style="stop-opacity:1; stop-color:#C42F44"/>
  </linearGradient>
 </defs>
 <g id="Capa_x0020_1">
  <metadata id="CorelCorpID_0Corel-Layer"/>
  <g id="_2697521945440">
   <g>
    <image x="-0" y="0" width="28.35" height="28.35" xlink:href="logo_Images\logo_ImgID1.png"/>
   </g>
   <g>
    <image x="1.25" y="4.59" width="26.27" height="22.1" xlink:href="logo_Images\logo_ImgID2.png"/>
   </g>
   <path class="fil0" d="M16.23 5.24l-7.46 0c-4.12,0 -7.46,3.35 -7.46,7.46 0,4.11 3.35,7.46 7.46,7.46l0 0 7.46 0 0 -8.19 -7.46 0 0 2.66 4.8 0 0 2.86 -4.8 0c-2.64,0 -4.8,-2.15 -4.8,-4.8l0 0c0,-2.64 2.15,-4.8 4.8,-4.8l0 0 7.46 0 0 -2.66z"/>
   <path class="fil1" d="M13.61 26.67l2.67 0 0 -6.74 7.14 0 0 -0.02 0.13 0c0.4,-0.04 0.79,-0.15 1.15,-0.31l0 0c1.39,-0.63 2.35,-2.01 2.35,-3.6 0,-1.09 -0.45,-2.07 -1.17,-2.8l0 0 -0.02 -0.02c-0.73,-0.71 -1.73,-1.15 -2.84,-1.15l0 0 -9.4 0 0 14.65zm2.67 -12.03l6.76 0c0.47,0 0.79,0.21 0.96,0.38l0 0c0.15,0.15 0.41,0.48 0.41,0.96l0 0c0,0.52 -0.32,1 -0.81,1.21l0 0 0 0.02c-0.17,0.08 -0.36,0.13 -0.56,0.13l0 0 -6.76 0 0 -2.7z"/>
  </g>
 </g>
</svg>
